<?xml version="1.0" encoding="utf-8"?>
<!-- Generator: Adobe Illustrator 25.2.3, SVG Export Plug-In . SVG Version: 6.00 Build 0)  -->
<svg version="1.1"
	 id="svg2" inkscape:export-filename="C:\Users\chregi\Documents\GitHub\pacman-canvas\img\Pacman-Icon.png" inkscape:export-xdpi="90" inkscape:export-ydpi="90" inkscape:version="0.48.2 r9819" sodipodi:docname="Pacman-Icon.svg" xmlns:cc="http://creativecommons.org/ns#" xmlns:dc="http://purl.org/dc/elements/1.1/" xmlns:inkscape="http://www.inkscape.org/namespaces/inkscape" xmlns:rdf="http://www.w3.org/1999/02/22-rdf-syntax-ns#" xmlns:sodipodi="http://sodipodi.sourceforge.net/DTD/sodipodi-0.dtd" xmlns:svg="http://www.w3.org/2000/svg"
	 xmlns="http://www.w3.org/2000/svg" xmlns:xlink="http://www.w3.org/1999/xlink" x="0px" y="0px" viewBox="0 0 128 128"
	 style="enable-background:new 0 0 128 128;" xml:space="preserve">
<style type="text/css">
	.st0{fill:#333333;stroke:#000000;stroke-width:0.9904;stroke-opacity:0;}
	.st1{fill-rule:evenodd;clip-rule:evenodd;fill:#EE0000;stroke:#000000;stroke-opacity:0;}
	.st2{fill:#333333;stroke:#000000;stroke-opacity:0;}
</style>
<sodipodi:namedview  bordercolor="#666666" borderopacity="1.0" fit-margin-bottom="0" fit-margin-left="0" fit-margin-right="0" fit-margin-top="0" id="base" inkscape:current-layer="layer3" inkscape:cx="-101.68133" inkscape:cy="17.658003" inkscape:document-units="px" inkscape:pageopacity="0.0" inkscape:pageshadow="2" inkscape:window-height="838" inkscape:window-maximized="1" inkscape:window-width="1600" inkscape:window-x="-8" inkscape:window-y="-8" inkscape:zoom="1" pagecolor="#ffffff" showgrid="false">
	</sodipodi:namedview>
<g id="layer4" inkscape:groupmode="layer" inkscape:label="BG">
	<path id="rect4810" class="st0" d="M25.5,0.5h77c13.8,0,25,11.2,25,25v77c0,13.8-11.2,25-25,25h-77c-13.8,0-25-11.2-25-25v-77
		C0.5,11.7,11.7,0.5,25.5,0.5z"/>
</g>
<g id="layer1" transform="translate(-205.19915,-422.02019)" inkscape:groupmode="layer" inkscape:label="Ebene 1">
	
		<path id="path2985" sodipodi:cx="315.71429" sodipodi:cy="433.79074" sodipodi:end="5.6812379" sodipodi:rx="110" sodipodi:ry="115.71429" sodipodi:start="0.43782781" sodipodi:type="arc" class="st1" d="
		M318.9,509.5c-12.2,26.1-43.3,37.4-69.4,25.2c-26.1-12.2-37.4-43.3-25.2-69.4c12.2-26.1,43.3-37.4,69.4-25.2
		c8.4,3.9,15.6,10.1,20.9,17.7l-43,29.6L318.9,509.5z"/>
</g>
<g id="layer3" transform="translate(0,-0.0302887)" inkscape:groupmode="layer" inkscape:label="Auge">
	
		<path id="path4805" sodipodi:cx="-65.740738" sodipodi:cy="50.715473" sodipodi:rx="13.888889" sodipodi:ry="13.425926" sodipodi:type="arc" class="st2" d="
		M75.6,40.8c0,5.3-4.3,9.6-9.6,9.7c-5.3,0-9.6-4.3-9.7-9.6c0,0,0,0,0,0c0-5.3,4.3-9.6,9.6-9.6S75.6,35.4,75.6,40.8z"/>
</g>
</svg>
