<?xml version="1.0" encoding="utf-8"?>
<!-- Generator: Adobe Illustrator 25.2.3, SVG Export Plug-In . SVG Version: 6.00 Build 0)  -->
<svg version="1.1"
	 id="svg3209" inkscape:version="0.48.2 r9819" sodipodi:docname="Neues Dokument 11" xmlns:cc="http://creativecommons.org/ns#" xmlns:dc="http://purl.org/dc/elements/1.1/" xmlns:inkscape="http://www.inkscape.org/namespaces/inkscape" xmlns:rdf="http://www.w3.org/1999/02/22-rdf-syntax-ns#" xmlns:sodipodi="http://sodipodi.sourceforge.net/DTD/sodipodi-0.dtd" xmlns:svg="http://www.w3.org/2000/svg"
	 xmlns="http://www.w3.org/2000/svg" xmlns:xlink="http://www.w3.org/1999/xlink" x="0px" y="0px" viewBox="0 0 60 60"
	 style="enable-background:new 0 0 60 60;" xml:space="preserve">
<style type="text/css">
	.st0{fill:#186DC7;}
	.st1{fill:#FFFFFF;}
	.st2{fill:#0000FF;}
</style>
<g>
	<path class="st0" d="M24.8,13.4c-1-0.3-2.1-0.4-3.3-0.4c-7,0-12.7,5-12.7,12l-0.4,0.3c-4.6,1.3-8,5.6-8,10.6c0,5.7,4.4,10.4,10,11
		l0,0h0.9c0.1,0,0.1,0,0.2,0s0.1,0,0.2,0h17.4h8.1v-0.1h9.6c7.4,0,12.8-6,12.8-13.3c0-6.3-4.4-11.6-10.3-13v-0.2
		c0-7-6.8-12.5-13.8-12.5C30.9,7.7,27.1,10,24.8,13.4"/>
</g>
<sodipodi:namedview  bordercolor="#666666" borderopacity="1.0" fit-margin-bottom="0" fit-margin-left="0" fit-margin-right="0" fit-margin-top="0" id="base" inkscape:current-layer="layer1" inkscape:cx="56.727193" inkscape:cy="-67.066627" inkscape:document-units="px" inkscape:pageopacity="0.0" inkscape:pageshadow="2" inkscape:window-height="1148" inkscape:window-maximized="1" inkscape:window-width="1920" inkscape:window-x="-8" inkscape:window-y="-8" inkscape:zoom="1.4" pagecolor="#ffffff" showgrid="false">
	</sodipodi:namedview>
<g id="layer1" transform="translate(-620.1475,-462.09155)" inkscape:groupmode="layer" inkscape:label="Ebene 1">
	
		<g id="g3048" transform="translate(169.6996,-110.9135)" inkscape:export-xdpi="90" inkscape:export-ydpi="90" inkscape:label="#blinky">
		
			<path id="path3004" sodipodi:cx="498.92856" sodipodi:cy="598.61218" sodipodi:rx="8.9285717" sodipodi:ry="9.4642859" sodipodi:type="arc" class="st1" d="
			M507.5,597.6c0,5.3-4.5,9.6-10,9.6s-10-4.3-10-9.6s4.5-9.6,10-9.6S507.5,592.3,507.5,597.6z"/>
		
			<path id="path3004-1" sodipodi:cx="498.92856" sodipodi:cy="598.61218" sodipodi:rx="8.9285717" sodipodi:ry="9.4642859" sodipodi:type="arc" class="st1" d="
			M489.3,597.4c0,5.3-4.5,9.6-10,9.6s-10-4.3-10-9.6s4.5-9.6,10-9.6C484.8,587.7,489.3,592,489.3,597.4z"/>
		
			<path id="path3026" sodipodi:cx="482.2847" sodipodi:cy="598.23547" sodipodi:rx="2.841054" sodipodi:ry="2.9673231" sodipodi:type="arc" class="st2" d="
			M488.4,597.3c0,2.8-2.2,5-5,5s-5-2.2-5-5s2.2-5,5-5S488.4,594.6,488.4,597.3z"/>
		
			<path id="path3026-7" sodipodi:cx="482.2847" sodipodi:cy="598.23547" sodipodi:rx="2.841054" sodipodi:ry="2.9673231" sodipodi:type="arc" class="st2" d="
			M507.4,597c0,2.8-2.2,5-5,5s-5-2.2-5-5s2.2-5,5-5S507.4,594.3,507.4,597z"/>
	</g>
</g>
</svg>
