<?xml version="1.0" encoding="utf-8"?>
<!-- Generator: Adobe Illustrator 25.2.3, SVG Export Plug-In . SVG Version: 6.00 Build 0)  -->
<svg version="1.1"
	 id="svg3209" inkscape:version="0.48.2 r9819" sodipodi:docname="dazzled2.svg" xmlns:cc="http://creativecommons.org/ns#" xmlns:dc="http://purl.org/dc/elements/1.1/" xmlns:inkscape="http://www.inkscape.org/namespaces/inkscape" xmlns:rdf="http://www.w3.org/1999/02/22-rdf-syntax-ns#" xmlns:sodipodi="http://sodipodi.sourceforge.net/DTD/sodipodi-0.dtd" xmlns:svg="http://www.w3.org/2000/svg"
	 xmlns="http://www.w3.org/2000/svg" xmlns:xlink="http://www.w3.org/1999/xlink" x="0px" y="0px" viewBox="0 0 60 60"
	 style="enable-background:new 0 0 60 60;" xml:space="preserve">
<style type="text/css">
	.st0{fill:#4D4D4D;}
	.st1{fill:#FF0000;}
	.st2{fill:none;stroke:#000000;}
</style>
<g>
	<path class="st0" d="M24.8,13.4c-1-0.3-2.1-0.4-3.3-0.4c-7,0-12.7,5-12.7,12l-0.4,0.3c-4.6,1.3-8,5.6-8,10.6c0,5.7,4.4,10.4,10,11
		l0,0h0.9c0.1,0,0.1,0,0.2,0s0.1,0,0.2,0h17.4h8.1v-0.1h9.6c7.4,0,12.8-6,12.8-13.3c0-6.3-4.4-11.6-10.3-13v-0.2
		c0-7-6.8-12.5-13.8-12.5C30.9,7.7,27.1,10,24.8,13.4"/>
</g>
<sodipodi:namedview  bordercolor="#666666" borderopacity="1.0" fit-margin-bottom="0" fit-margin-left="0" fit-margin-right="0" fit-margin-top="0" id="base" inkscape:current-layer="layer1" inkscape:cx="56.727193" inkscape:cy="-15.981831" inkscape:document-units="px" inkscape:pageopacity="0.0" inkscape:pageshadow="2" inkscape:window-height="838" inkscape:window-maximized="1" inkscape:window-width="1600" inkscape:window-x="-8" inkscape:window-y="-8" inkscape:zoom="2.990248" pagecolor="#ffffff" showgrid="false">
	</sodipodi:namedview>
<g id="layer1" transform="translate(-620.1475,-462.09155)" inkscape:groupmode="layer" inkscape:label="Ebene 1">
	
		<path id="path3004" sodipodi:cx="498.92856" sodipodi:cy="598.61218" sodipodi:rx="8.9285717" sodipodi:ry="9.4642859" sodipodi:type="arc" class="st1" d="
		M677.2,486.7c0,5.3-4.5,9.6-10,9.6s-10-4.3-10-9.6s4.5-9.6,10-9.6S677.2,481.4,677.2,486.7z"/>
	
		<path id="path3004-1" sodipodi:cx="498.92856" sodipodi:cy="598.61218" sodipodi:rx="8.9285717" sodipodi:ry="9.4642859" sodipodi:type="arc" class="st1" d="
		M659,486.4c0,5.3-4.5,9.6-10,9.6s-10-4.3-10-9.6c0-5.3,4.5-9.6,10-9.6S659,481.1,659,486.4z"/>
	
		<path id="path3023" sodipodi:argument="-18.782988" sodipodi:cx="-171.42857" sodipodi:cy="90.714287" sodipodi:expansion="1" sodipodi:radius="10.738069" sodipodi:revolution="3" sodipodi:t0="0" sodipodi:type="spiral" class="st2" d="
		M648.5,487.6c0.5,0,0.2,0.7-0.1,0.8c-0.6,0.4-1.3-0.3-1.5-0.9c-0.3-1.1,0.6-2.1,1.7-2.3c1.5-0.2,2.7,1.1,2.9,2.6
		c0.2,2-1.4,3.6-3.3,3.7c-2.3,0.1-4.2-1.9-4.3-4.3c-0.1-2.8,2.2-5.1,4.9-5.2c3.1-0.1,5.6,2.7,5.7,5.9c0,3.7-3,6.7-6.5,6.7
		c-3.9,0-7.1-3.6-7.1-7.6c0-4.6,3.8-8.2,8.1-8.1c4.8,0,8.5,4.4,8.5,9.3"/>
	
		<path id="path3023-1" sodipodi:argument="-18.782988" sodipodi:cx="-171.42857" sodipodi:cy="90.714287" sodipodi:expansion="1" sodipodi:radius="10.738069" sodipodi:revolution="3" sodipodi:t0="0" sodipodi:type="spiral" class="st2" d="
		M666.5,487.4c0.5,0,0.2,0.7-0.1,0.8c-0.6,0.4-1.3-0.3-1.5-0.9c-0.3-1.1,0.6-2.1,1.7-2.3c1.5-0.2,2.7,1.1,2.9,2.6
		c0.2,2-1.4,3.6-3.3,3.7c-2.3,0.1-4.2-1.9-4.3-4.3c-0.1-2.8,2.2-5.1,4.9-5.2c3.1-0.1,5.6,2.7,5.7,5.9c0,3.7-3,6.7-6.5,6.7
		c-3.9,0-7.1-3.6-7.1-7.6c0-4.6,3.8-8.2,8.1-8.1c4.8,0,8.5,4.4,8.5,9.3"/>
</g>
</svg>
